  0
SECTION
  2
HEADER
  9
$ACADVER
  1
AC1027
  9
$ACADMAINTVER
 70
125
  9
$DWGCODEPAGE
  3
ANSI_1252
  9
$LASTSAVEDBY
  1
IPElab-TS-02
  9
$REQUIREDVERSIONS
160
0
  9
$INSBASE
 10
0.0
 20
0.0
 30
0.0
  9
$EXTMIN
 10
26.51947937721661
 20
-25.67312293527618
 30
-0.0000000116415251
  9
$EXTMAX
 10
64.85760452423864
 20
33.56416344848046
 30
-0.0000000116415251
  9
$LIMMIN
 10
0.0
 20
0.0
  9
$LIMMAX
 10
12.0
 20
9.0
  9
$ORTHOMODE
 70
0
  9
$REGENMODE
 70
1
  9
$FILLMODE
 70
1
  9
$QTEXTMODE
 70
0
  9
$MIRRTEXT
 70
0
  9
$LTSCALE
 40
1.0
  9
$ATTMODE
 70
1
  9
$TEXTSIZE
 40
0.2
  9
$TRACEWID
 40
0.05
  9
$TEXTSTYLE
  7
STANDARD
  9
$CLAYER
  8
0
  9
$CELTYPE
  6
Continuous
  9
$CECOLOR
 62
256
  9
$CELTSCALE
 40
1.0
  9
$DISPSILH
 70
0
  9
$DIMSCALE
 40
1.0
  9
$DIMASZ
 40
0.18
  9
$DIMEXO
 40
0.0625
  9
$DIMDLI
 40
0.38
  9
$DIMRND
 40
0.0
  9
$DIMDLE
 40
0.0
  9
$DIMEXE
 40
0.18
  9
$DIMTP
 40
0.0
  9
$DIMTM
 40
0.0
  9
$DIMTXT
 40
0.18
  9
$DIMCEN
 40
0.09
  9
$DIMTSZ
 40
0.0
  9
$DIMTOL
 70
0
  9
$DIMLIM
 70
0
  9
$DIMTIH
 70
1
  9
$DIMTOH
 70
1
  9
$DIMSE1
 70
0
  9
$DIMSE2
 70
0
  9
$DIMTAD
 70
0
  9
$DIMZIN
 70
0
  9
$DIMBLK
  1

  9
$DIMASO
 70
1
  9
$DIMSHO
 70
1
  9
$DIMPOST
  1

  9
$DIMAPOST
  1

  9
$DIMALT
 70
0
  9
$DIMALTD
 70
2
  9
$DIMALTF
 40
25.4
  9
$DIMLFAC
 40
1.0
  9
$DIMTOFL
 70
0
  9
$DIMTVP
 40
0.0
  9
$DIMTIX
 70
0
  9
$DIMSOXD
 70
0
  9
$DIMSAH
 70
0
  9
$DIMBLK1
  1

  9
$DIMBLK2
  1

  9
$DIMSTYLE
  2
Standard
  9
$DIMCLRD
 70
0
  9
$DIMCLRE
 70
0
  9
$DIMCLRT
 70
0
  9
$DIMTFAC
 40
1.0
  9
$DIMGAP
 40
0.09
  9
$DIMJUST
 70
0
  9
$DIMSD1
 70
0
  9
$DIMSD2
 70
0
  9
$DIMTOLJ
 70
1
  9
$DIMTZIN
 70
0
  9
$DIMALTZ
 70
0
  9
$DIMALTTZ
 70
0
  9
$DIMUPT
 70
0
  9
$DIMDEC
 70
4
  9
$DIMTDEC
 70
4
  9
$DIMALTU
 70
2
  9
$DIMALTTD
 70
2
  9
$DIMTXSTY
  7
STANDARD
  9
$DIMAUNIT
 70
0
  9
$DIMADEC
 70
0
  9
$DIMALTRND
 40
0.0
  9
$DIMAZIN
 70
0
  9
$DIMDSEP
 70
46
  9
$DIMATFIT
 70
3
  9
$DIMFRAC
 70
0
  9
$DIMLDRBLK
  1

  9
$DIMLUNIT
 70
2
  9
$DIMLWD
 70
-2
  9
$DIMLWE
 70
-2
  9
$DIMTMOVE
 70
0
  9
$DIMFXL
 40
1.0
  9
$DIMFXLON
 70
0
  9
$DIMJOGANG
 40
0.7853981633974483
  9
$DIMTFILL
 70
0
  9
$DIMTFILLCLR
 70
0
  9
$DIMARCSYM
 70
0
  9
$DIMLTYPE
  6

  9
$DIMLTEX1
  6

  9
$DIMLTEX2
  6

  9
$DIMTXTDIRECTION
 70
0
  9
$LUNITS
 70
2
  9
$LUPREC
 70
4
  9
$SKETCHINC
 40
0.1
  9
$FILLETRAD
 40
0.0
  9
$AUNITS
 70
0
  9
$AUPREC
 70
0
  9
$MENU
  1
.
  9
$ELEVATION
 40
0.0
  9
$PELEVATION
 40
0.0
  9
$THICKNESS
 40
0.0
  9
$LIMCHECK
 70
0
  9
$CHAMFERA
 40
0.0
  9
$CHAMFERB
 40
0.0
  9
$CHAMFERC
 40
0.0
  9
$CHAMFERD
 40
0.0
  9
$SKPOLY
 70
0
  9
$TDCREATE
 40
2461216.615289352
  9
$TDUCREATE
 40
2461216.740289352
  9
$TDUPDATE
 40
2461216.616168982
  9
$TDUUPDATE
 40
2461216.741168982
  9
$TDINDWG
 40
0.0008796296
  9
$TDUSRTIMER
 40
0.0008796296
  9
$USRTIMER
 70
1
  9
$ANGBASE
 50
0.0
  9
$ANGDIR
 70
0
  9
$PDMODE
 70
0
  9
$PDSIZE
 40
0.0
  9
$PLINEWID
 40
0.0
  9
$SPLFRAME
 70
0
  9
$SPLINETYPE
 70
6
  9
$SPLINESEGS
 70
8
  9
$HANDSEED
  5
1009D
  9
$SURFTAB1
 70
6
  9
$SURFTAB2
 70
6
  9
$SURFTYPE
 70
6
  9
$SURFU
 70
6
  9
$SURFV
 70
6
  9
$UCSBASE
  2

  9
$UCSNAME
  2

  9
$UCSORG
 10
0.0
 20
0.0
 30
0.0
  9
$UCSXDIR
 10
1.0
 20
0.0
 30
0.0
  9
$UCSYDIR
 10
0.0
 20
1.0
 30
0.0
  9
$UCSORTHOREF
  2

  9
$UCSORTHOVIEW
 70
0
  9
$UCSORGTOP
 10
0.0
 20
0.0
 30
0.0
  9
$UCSORGBOTTOM
 10
0.0
 20
0.0
 30
0.0
  9
$UCSORGLEFT
 10
0.0
 20
0.0
 30
0.0
  9
$UCSORGRIGHT
 10
0.0
 20
0.0
 30
0.0
  9
$UCSORGFRONT
 10
0.0
 20
0.0
 30
0.0
  9
$UCSORGBACK
 10
0.0
 20
0.0
 30
0.0
  9
$PUCSBASE
  2

  9
$PUCSNAME
  2

  9
$PUCSORG
 10
0.0
 20
0.0
 30
0.0
  9
$PUCSXDIR
 10
1.0
 20
0.0
 30
0.0
  9
$PUCSYDIR
 10
0.0
 20
1.0
 30
0.0
  9
$PUCSORTHOREF
  2

  9
$PUCSORTHOVIEW
 70
0
  9
$PUCSORGTOP
 10
0.0
 20
0.0
 30
0.0
  9
$PUCSORGBOTTOM
 10
0.0
 20
0.0
 30
0.0
  9
$PUCSORGLEFT
 10
0.0
 20
0.0
 30
0.0
  9
$PUCSORGRIGHT
 10
0.0
 20
0.0
 30
0.0
  9
$PUCSORGFRONT
 10
0.0
 20
0.0
 30
0.0
  9
$PUCSORGBACK
 10
0.0
 20
0.0
 30
0.0
  9
$USERI1
 70
0
  9
$USERI2
 70
0
  9
$USERI3
 70
0
  9
$USERI4
 70
0
  9
$USERI5
 70
0
  9
$USERR1
 40
0.0
  9
$USERR2
 40
0.0
  9
$USERR3
 40
0.0
  9
$USERR4
 40
0.0
  9
$USERR5
 40
0.0
  9
$WORLDVIEW
 70
1
  9
$SHADEDGE
 70
3
  9
$SHADEDIF
 70
70
  9
$TILEMODE
 70
1
  9
$MAXACTVP
 70
64
  9
$PINSBASE
 10
0.0
 20
0.0
 30
0.0
  9
$PLIMCHECK
 70
0
  9
$PEXTMIN
 10
1.000000000000000E+20
 20
1.000000000000000E+20
 30
1.000000000000000E+20
  9
$PEXTMAX
 10
-1.000000000000000E+20
 20
-1.000000000000000E+20
 30
-1.000000000000000E+20
  9
$PLIMMIN
 10
0.0
 20
0.0
  9
$PLIMMAX
 10
12.0
 20
9.0
  9
$UNITMODE
 70
0
  9
$VISRETAIN
 70
1
  9
$PLINEGEN
 70
0
  9
$PSLTSCALE
 70
1
  9
$TREEDEPTH
 70
3020
  9
$CMLSTYLE
  2
Standard
  9
$CMLJUST
 70
0
  9
$CMLSCALE
 40
1.0
  9
$PROXYGRAPHICS
 70
1
  9
$MEASUREMENT
 70
0
  9
$CELWEIGHT
370
-1
  9
$ENDCAPS
280
0
  9
$JOINSTYLE
280
0
  9
$LWDISPLAY
290
0
  9
$INSUNITS
 70
4
  9
$HYPERLINKBASE
  1

  9
$STYLESHEET
  1

  9
$XEDIT
290
1
  9
$CEPSNTYPE
380
0
  9
$PSTYLEMODE
290
1
  9
$FINGERPRINTGUID
  2
{01671070-3CFE-9149-B171-09350DD44319}
  9
$VERSIONGUID
  2
{E56CD224-50DF-824F-A42D-DB84324F44CF}
  9
$EXTNAMES
290
1
  9
$PSVPSCALE
 40
0.0
  9
$OLESTARTUP
290
0
  9
$SORTENTS
280
127
  9
$INDEXCTL
280
0
  9
$HIDETEXT
280
0
  9
$XCLIPFRAME
280
2
  9
$HALOGAP
280
0
  9
$OBSCOLOR
 70
257
  9
$OBSLTYPE
280
0
  9
$INTERSECTIONDISPLAY
280
0
  9
$INTERSECTIONCOLOR
 70
257
  9
$DIMASSOC
280
1
  9
$PROJECTNAME
  1

  9
$CAMERADISPLAY
290
0
  9
$LENSLENGTH
 40
50.0
  9
$CAMERAHEIGHT
 40
0.0
  9
$STEPSPERSEC
 40
2.0
  9
$STEPSIZE
 40
6.0
  9
$3DDWFPREC
 40
2.0
  9
$PSOLWIDTH
 40
0.25
  9
$PSOLHEIGHT
 40
4.0
  9
$LOFTANG1
 40
1.570796326794896
  9
$LOFTANG2
 40
1.570796326794896
  9
$LOFTMAG1
 40
0.0
  9
$LOFTMAG2
 40
0.0
  9
$LOFTPARAM
 70
7
  9
$LOFTNORMALS
280
1
  9
$LATITUDE
 40
37.795
  9
$LONGITUDE
 40
-122.394
  9
$NORTHDIRECTION
 40
0.0
  9
$TIMEZONE
 70
-8000
  9
$LIGHTGLYPHDISPLAY
280
1
  9
$TILEMODELIGHTSYNCH
280
1
  9
$CMATERIAL
347
10005
  9
$SOLIDHIST
280
0
  9
$SHOWHIST
280
1
  9
$DWFFRAME
280
2
  9
$DGNFRAME
280
0
  9
$REALWORLDSCALE
290
1
  9
$INTERFERECOLOR
 62
1
  9
$INTERFEREOBJVS
345
10027
  9
$INTERFEREVPVS
346
10024
  9
$CSHADOW
280
0
  9
$SHADOWPLANELOCATION
 40
0.0
  0
ENDSEC
  0
SECTION
  2
TABLES
  0
TABLE
  2
VPORT
  5
8
330
0
100
AcDbSymbolTable
 70
1
1001
ACAD
1000
DbSaveVer
1071
428
  0
VPORT
  5
10059
330
8
100
AcDbSymbolTableRecord
100
AcDbViewportTableRecord
  2
*Active
 70
0
 10
0.0
 20
0.0
 11
1.0
 21
1.0
 12
45.68854195072763
 22
3.945520256602137
 13
0.0
 23
0.0
 14
1.0
 24
1.0
 15
0.0
 25
0.0
 16
0.0
 26
0.0
 36
1.0
 17
0.0
 27
0.0
 37
0.0
 40
59.67662348919859
 41
1.938118811881188
 42
50.0
 43
0.0
 44
0.0
 50
0.0
 51
0.0
 71
0
 72
1000
 73
1
 74
3
 75
0
 76
0
 77
0
 78
0
281
0
 65
1
110
0.0
120
0.0
130
0.0
111
1.0
121
0.0
131
0.0
112
0.0
122
1.0
132
0.0
 79
0
146
0.0
348
10023
 60
3
 61
5
292
1
282
1
141
0.0
142
0.0
 63
250
421
3355443
1001
ACAD_NAV_VCDISPLAY
1070
1
  0
ENDTAB
  0
TABLE
  2
LTYPE
  5
5
330
0
100
AcDbSymbolTable
 70
2
  0
LTYPE
  5
14
330
5
100
AcDbSymbolTableRecord
100
AcDbLinetypeTableRecord
  2
BYBLOCK
 70
0
  3

 72
65
 73
0
 40
0.0
  0
LTYPE
  5
15
330
5
100
AcDbSymbolTableRecord
100
AcDbLinetypeTableRecord
  2
BYLAYER
 70
0
  3

 72
65
 73
0
 40
0.0
  0
LTYPE
  5
10001
330
5
100
AcDbSymbolTableRecord
100
AcDbLinetypeTableRecord
  2
Continuous
 70
0
  3
Solid line
 72
65
 73
0
 40
0.0
  0
LTYPE
  5
16
330
5
100
AcDbSymbolTableRecord
100
AcDbLinetypeTableRecord
  2
DASHED
 70
0
  3
Dashed __ __ __ __ __ __ __ __ __ __ __ __ __ _
 72
65
 73
2
 40
0.75
 49
0.5
 74
0
 49
-0.25
 74
0
  0
ENDTAB
  0
TABLE
  2
LAYER
  5
2
102
{ACAD_XDICTIONARY
360
10072
102
}
330
0
100
AcDbSymbolTable
 70
1
  0
LAYER
  5
50
102
{ACAD_XDICTIONARY
360
1005C
102
}
330
2
100
AcDbSymbolTableRecord
100
AcDbLayerTableRecord
  2
0
 70
0
 62
7
  6
Continuous
370
-3
390
10003
347
10015
348
0
  0
ENDTAB
  0
TABLE
  2
STYLE
  5
3
330
0
100
AcDbSymbolTable
 70
1
  0
STYLE
  5
11
330
3
100
AcDbSymbolTableRecord
100
AcDbTextStyleTableRecord
  2
STANDARD
 70
0
 40
0.0
 41
1.0
 50
0.0
 71
0
 42
0.2
  3

  4

  0
ENDTAB
  0
TABLE
  2
VIEW
  5
6
330
0
100
AcDbSymbolTable
 70
2
  0
ENDTAB
  0
TABLE
  2
UCS
  5
7
330
0
100
AcDbSymbolTable
 70
0
  0
ENDTAB
  0
TABLE
  2
APPID
  5
9
330
0
100
AcDbSymbolTable
 70
2
  0
APPID
  5
12
330
9
100
AcDbSymbolTableRecord
100
AcDbRegAppTableRecord
  2
ACAD
 70
0
  0
APPID
  5
10058
330
9
100
AcDbSymbolTableRecord
100
AcDbRegAppTableRecord
  2
ACAD_NAV_VCDISPLAY
 70
0
  0
ENDTAB
  0
TABLE
  2
DIMSTYLE
  5
A
330
0
100
AcDbSymbolTable
 70
1
100
AcDbDimStyleTable
 71
0
  0
DIMSTYLE
105
10053
330
A
100
AcDbSymbolTableRecord
100
AcDbDimStyleTableRecord
  2
Standard
 70
0
340
11
  0
ENDTAB
  0
TABLE
  2
BLOCK_RECORD
  5
1
330
0
100
AcDbSymbolTable
 70
0
  0
BLOCK_RECORD
  5
1F
330
1
100
AcDbSymbolTableRecord
100
AcDbBlockTableRecord
  2
*MODEL_SPACE
340
10055
 70
0
280
1
281
0
  0
BLOCK_RECORD
  5
1B
330
1
100
AcDbSymbolTableRecord
100
AcDbBlockTableRecord
  2
*PAPER_SPACE
340
10056
 70
0
280
1
281
0
  0
ENDTAB
  0
ENDSEC
  0
SECTION
  2
BLOCKS
  0
BLOCK
  5
20
330
1F
100
AcDbEntity
  8
0
100
AcDbBlockBegin
  2
*MODEL_SPACE
 70
0
 10
0.0
 20
0.0
 30
0.0
  3
*MODEL_SPACE
  1

  0
ENDBLK
  5
21
330
1F
100
AcDbEntity
  8
0
100
AcDbBlockEnd
  0
BLOCK
  5
1C
330
1B
100
AcDbEntity
 67
1
  8
0
100
AcDbBlockBegin
  2
*PAPER_SPACE
 70
0
 10
0.0
 20
0.0
 30
0.0
  3
*PAPER_SPACE
  1

  0
ENDBLK
  5
1D
330
1B
100
AcDbEntity
 67
1
  8
0
100
AcDbBlockEnd
  0
ENDSEC
  0
SECTION
  2
ENTITIES
  0
SPLINE
  5
100
330
1F
100
AcDbEntity
  8
0
100
AcDbSpline
210
0.0
220
0.0
230
1.0
 70
12
 71
3
 72
8
 73
4
 74
0
 42
0.000000001
 43
0.0000000001
 40
-1.0
 40
-1.0
 40
-1.0
 40
-1.0
 40
0.0
 40
0.0
 40
0.0
 40
0.0
 10
55.35641709400475
 20
14.72847605633383
 30
0.0
 41
1.0
 10
55.7268337606714
 20
14.95072605633383
 30
0.0
 41
1.0
 10
56.8380837606714
 20
15.5989552230005
 30
0.0
 41
1.0
 10
57.80116709400474
 20
16.17310105633383
 30
0.0
 41
1.0
  0
SPLINE
  5
101
330
1F
100
AcDbEntity
  8
0
100
AcDbSpline
210
0.0
220
0.0
230
1.0
 70
12
 71
3
 72
8
 73
4
 74
0
 42
0.000000001
 43
0.0000000001
 40
-1.0
 40
-1.0
 40
-1.0
 40
-1.0
 40
0.0
 40
0.0
 40
0.0
 40
0.0
 10
57.80116709400474
 20
16.17310105633383
 30
0.0
 41
1.0
 10
58.7827712606714
 20
16.74724688966717
 30
0.0
 41
1.0
 10
59.7273337606714
 20
17.19174688966717
 30
0.0
 41
1.0
 10
59.8940212606714
 20
17.13618438966716
 30
0.0
 41
1.0
  0
SPLINE
  5
102
330
1F
100
AcDbEntity
  8
0
100
AcDbSpline
210
0.0
220
0.0
230
1.0
 70
12
 71
3
 72
8
 73
4
 74
0
 42
0.000000001
 43
0.0000000001
 40
-1.0
 40
-1.0
 40
-1.0
 40
-1.0
 40
0.0
 40
0.0
 40
0.0
 40
0.0
 10
59.8940212606714
 20
17.13618438966716
 30
0.0
 41
1.0
 10
60.0607087606714
 20
17.0991427230005
 30
0.0
 41
1.0
 10
61.24604209400474
 20
16.46943438966717
 30
0.0
 41
1.0
 10
62.52397959400474
 20
15.72860105633383
 30
0.0
 41
1.0
  0
LINE
  5
103
330
1F
100
AcDbEntity
  8
0
100
AcDbLine
 10
62.52397959400474
 20
15.72860105633384
 30
0.0
 11
64.8390837606714
 21
14.39510105633383
 31
0.0
  0
LINE
  5
104
330
1F
100
AcDbEntity
  8
0
100
AcDbLine
 10
64.8390837606714
 20
14.39510105633383
 30
0.0
 11
64.8390837606714
 21
11.4317677230005
 31
0.0
  0
LINE
  5
105
330
1F
100
AcDbEntity
  8
0
100
AcDbLine
 10
64.8390837606714
 20
11.4317677230005
 30
0.0
 11
64.85760459400473
 21
8.46843438966716
 31
0.0
  0
LINE
  5
106
330
1F
100
AcDbEntity
  8
0
100
AcDbLine
 10
64.85760459400473
 20
8.46843438966716
 30
0.0
 11
62.41285459400475
 21
7.079371889667163
 31
0.0
  0
SPLINE
  5
107
330
1F
100
AcDbEntity
  8
0
100
AcDbSpline
210
0.0
220
0.0
230
1.0
 70
12
 71
3
 72
8
 73
4
 74
0
 42
0.000000001
 43
0.0000000001
 40
-1.0
 40
-1.0
 40
-1.0
 40
-1.0
 40
0.0
 40
0.0
 40
0.0
 40
0.0
 10
62.41285459400475
 20
7.079371889667163
 30
0.0
 41
1.0
 10
61.07935459400475
 20
6.320017723000503
 30
0.0
 41
1.0
 10
59.93106292733807
 20
5.671788556333838
 30
0.0
 41
1.0
 10
59.85697959400475
 20
5.634746889667163
 30
0.0
 41
1.0
  0
SPLINE
  5
108
330
1F
100
AcDbEntity
  8
0
100
AcDbSpline
210
0.0
220
0.0
230
1.0
 70
12
 71
3
 72
8
 73
4
 74
0
 42
0.000000001
 43
0.0000000001
 40
-1.0
 40
-1.0
 40
-1.0
 40
-1.0
 40
0.0
 40
0.0
 40
0.0
 40
0.0
 10
59.85697959400475
 20
5.634746889667163
 30
0.0
 41
1.0
 10
59.78289626067141
 20
5.597705223000497
 30
0.0
 41
1.0
 10
58.65312542733807
 20
6.2088927230005
 30
0.0
 41
1.0
 10
57.3381462606714
 20
6.986767723000499
 30
0.0
 41
1.0
  0
SPLINE
  5
109
330
1F
100
AcDbEntity
  8
0
100
AcDbSpline
210
0.0
220
0.0
230
1.0
 70
12
 71
3
 72
8
 73
4
 74
0
 42
0.000000001
 43
0.0000000001
 40
-1.0
 40
-1.0
 40
-1.0
 40
-1.0
 40
0.0
 40
0.0
 40
0.0
 40
0.0
 10
57.3381462606714
 20
6.986767723000499
 30
0.0
 41
1.0
 10
56.02316709400475
 20
7.746121889667167
 30
0.0
 41
1.0
 10
54.89339626067141
 20
8.375830223000496
 30
0.0
 41
1.0
 10
54.81931292733808
 20
8.375830223000496
 30
0.0
 41
1.0
  0
SPLINE
  5
110
330
1F
100
AcDbEntity
  8
0
100
AcDbSpline
210
0.0
220
0.0
230
1.0
 70
12
 71
3
 72
8
 73
4
 74
0
 42
0.000000001
 43
0.0000000001
 40
-1.0
 40
-1.0
 40
-1.0
 40
-1.0
 40
0.0
 40
0.0
 40
0.0
 40
0.0
 10
54.81931292733808
 20
8.375830223000496
 30
0.0
 41
1.0
 10
54.74522959400474
 20
8.375830223000496
 30
0.0
 41
1.0
 10
54.67114626067139
 20
9.709330223000494
 30
0.0
 41
1.0
 10
54.67114626067139
 20
11.33916355633383
 30
0.0
 41
1.0
  0
LINE
  5
111
330
1F
100
AcDbEntity
  8
0
100
AcDbLine
 10
54.67114626067139
 20
11.33916355633383
 30
0.0
 11
54.6711462606714
 21
14.3210177230005
 31
0.0
  0
LINE
  5
112
330
1F
100
AcDbEntity
  8
0
100
AcDbLine
 10
54.6711462606714
 20
14.3210177230005
 30
0.0
 11
55.35641709400475
 21
14.72847605633383
 31
0.0
  0
SPLINE
  5
113
330
1F
100
AcDbEntity
  8
0
100
AcDbSpline
210
0.0
220
0.0
230
1.0
 70
12
 71
3
 72
8
 73
4
 74
0
 42
0.000000001
 43
0.0000000001
 40
-1.0
 40
-1.0
 40
-1.0
 40
-1.0
 40
0.0
 40
0.0
 40
0.0
 40
0.0
 10
47.1146462606714
 20
29.23028855633384
 30
0.0
 41
1.0
 10
47.15168792733807
 20
29.24880938966717
 30
0.0
 41
1.0
 10
48.8370837606714
 20
30.24893438966718
 30
0.0
 41
1.0
 10
50.87437542733807
 20
31.41574688966717
 30
0.0
 41
1.0
  0
SPLINE
  5
114
330
1F
100
AcDbEntity
  8
0
100
AcDbSpline
210
0.0
220
0.0
230
1.0
 70
12
 71
3
 72
8
 73
4
 74
0
 42
0.000000001
 43
0.0000000001
 40
-1.0
 40
-1.0
 40
-1.0
 40
-1.0
 40
0.0
 40
0.0
 40
0.0
 40
0.0
 10
50.87437542733807
 20
31.41574688966717
 30
0.0
 41
1.0
 10
52.91166709400474
 20
32.6010802230005
 30
0.0
 41
1.0
 10
54.6155837606714
 20
33.56416355633383
 30
0.0
 41
1.0
 10
54.67114626067139
 20
33.56416355633383
 30
0.0
 41
1.0
  0
SPLINE
  5
115
330
1F
100
AcDbEntity
  8
0
100
AcDbSpline
210
0.0
220
0.0
230
1.0
 70
12
 71
3
 72
8
 73
4
 74
0
 42
0.000000001
 43
0.0000000001
 40
-1.0
 40
-1.0
 40
-1.0
 40
-1.0
 40
0.0
 40
0.0
 40
0.0
 40
0.0
 10
54.67114626067139
 20
33.56416355633383
 30
0.0
 41
1.0
 10
54.72670876067141
 20
33.56416355633383
 30
0.0
 41
1.0
 10
55.7268337606714
 20
32.99001772300051
 30
0.0
 41
1.0
 10
56.89364626067139
 20
32.30474688966717
 30
0.0
 41
1.0
  0
SPLINE
  5
116
330
1F
100
AcDbEntity
  8
0
100
AcDbSpline
210
0.0
220
0.0
230
1.0
 70
12
 71
3
 72
8
 73
4
 74
0
 42
0.000000001
 43
0.0000000001
 40
-1.0
 40
-1.0
 40
-1.0
 40
-1.0
 40
0.0
 40
0.0
 40
0.0
 40
0.0
 10
56.89364626067139
 20
32.30474688966717
 30
0.0
 41
1.0
 10
58.06045876067141
 20
31.61947605633383
 30
0.0
 41
1.0
 10
59.74585459400475
 20
30.63787188966717
 30
0.0
 41
1.0
 10
60.63485459400475
 20
30.13780938966716
 30
0.0
 41
1.0
  0
LINE
  5
117
330
1F
100
AcDbEntity
  8
0
100
AcDbLine
 10
60.63485459400475
 20
30.13780938966716
 30
0.0
 11
62.26468792733807
 21
29.2117677230005
 31
0.0
  0
LINE
  5
118
330
1F
100
AcDbEntity
  8
0
100
AcDbLine
 10
62.26468792733807
 20
29.2117677230005
 30
0.0
 11
62.26468792733807
 21
20.32176772300049
 31
0.0
  0
LINE
  5
119
330
1F
100
AcDbEntity
  8
0
100
AcDbLine
 10
62.26468792733807
 20
20.32176772300049
 30
0.0
 11
58.44939626067141
 21
18.11778855633383
 31
0.0
  0
LINE
  5
120
330
1F
100
AcDbEntity
  8
0
100
AcDbLine
 10
58.44939626067141
 20
18.11778855633383
 30
0.0
 11
54.65262542733807
 21
15.9323302230005
 31
0.0
  0
LINE
  5
121
330
1F
100
AcDbEntity
  8
0
100
AcDbLine
 10
54.65262542733807
 20
15.9323302230005
 30
0.0
 11
53.31912542733807
 21
16.7102052230005
 31
0.0
  0
SPLINE
  5
122
330
1F
100
AcDbEntity
  8
0
100
AcDbSpline
210
0.0
220
0.0
230
1.0
 70
12
 71
3
 72
8
 73
4
 74
0
 42
0.000000001
 43
0.0000000001
 40
-1.0
 40
-1.0
 40
-1.0
 40
-1.0
 40
0.0
 40
0.0
 40
0.0
 40
0.0
 10
53.31912542733807
 20
16.7102052230005
 30
0.0
 41
1.0
 10
52.57829209400474
 20
17.13618438966716
 30
0.0
 41
1.0
 10
50.87437542733807
 20
18.11778855633383
 30
0.0
 41
1.0
 10
49.54087542733807
 20
18.89566355633384
 30
0.0
 41
1.0
  0
LINE
  5
123
330
1F
100
AcDbEntity
  8
0
100
AcDbLine
 10
49.54087542733806
 20
18.89566355633384
 30
0.0
 11
47.07760459400474
 21
20.28472605633383
 31
0.0
  0
LINE
  5
124
330
1F
100
AcDbEntity
  8
0
100
AcDbLine
 10
47.07760459400474
 20
20.28472605633383
 30
0.0
 11
47.0590837606714
 21
24.28522605633384
 31
0.0
  0
SPLINE
  5
125
330
1F
100
AcDbEntity
  8
0
100
AcDbSpline
210
0.0
220
0.0
230
1.0
 70
12
 71
3
 72
8
 73
4
 74
0
 42
0.000000001
 43
0.0000000001
 40
-1.0
 40
-1.0
 40
-1.0
 40
-1.0
 40
0.0
 40
0.0
 40
0.0
 40
0.0
 10
47.0590837606714
 20
24.28522605633384
 30
0.0
 41
1.0
 10
47.02204209400474
 20
28.52649688966716
 30
0.0
 41
1.0
 10
47.04056292733806
 20
29.13768438966717
 30
0.0
 41
1.0
 10
47.1146462606714
 20
29.23028855633384
 30
0.0
 41
1.0
  0
SPLINE
  5
126
330
1F
100
AcDbEntity
  8
0
100
AcDbSpline
210
0.0
220
0.0
230
1.0
 70
12
 71
3
 72
8
 73
4
 74
0
 42
0.000000001
 43
0.0000000001
 40
-1.0
 40
-1.0
 40
-1.0
 40
-1.0
 40
0.0
 40
0.0
 40
0.0
 40
0.0
 10
34.42787542733807
 20
24.9334552230005
 30
0.0
 41
1.0
 10
34.61308376067141
 20
25.00753855633384
 30
0.0
 41
1.0
 10
35.7243337606714
 20
25.61872605633384
 30
0.0
 41
1.0
 10
36.89114626067141
 20
26.32251772300052
 30
0.0
 41
1.0
  0
SPLINE
  5
127
330
1F
100
AcDbEntity
  8
0
100
AcDbSpline
210
0.0
220
0.0
230
1.0
 70
12
 71
3
 72
8
 73
4
 74
0
 42
0.000000001
 43
0.0000000001
 40
-1.0
 40
-1.0
 40
-1.0
 40
-1.0
 40
0.0
 40
0.0
 40
0.0
 40
0.0
 10
36.89114626067141
 20
26.32251772300052
 30
0.0
 41
1.0
 10
38.0579587606714
 20
27.02630938966717
 30
0.0
 41
1.0
 10
39.09512542733808
 20
27.61897605633384
 30
0.0
 41
1.0
 10
39.1692087606714
 20
27.61897605633384
 30
0.0
 41
1.0
  0
SPLINE
  5
128
330
1F
100
AcDbEntity
  8
0
100
AcDbSpline
210
0.0
220
0.0
230
1.0
 70
12
 71
3
 72
8
 73
4
 74
0
 42
0.000000001
 43
0.0000000001
 40
-1.0
 40
-1.0
 40
-1.0
 40
-1.0
 40
0.0
 40
0.0
 40
0.0
 40
0.0
 10
39.1692087606714
 20
27.61897605633384
 30
0.0
 41
1.0
 10
39.24329209400474
 20
27.63749688966716
 30
0.0
 41
1.0
 10
40.13229209400473
 20
27.17447605633384
 30
0.0
 41
1.0
 10
41.11389626067139
 20
26.58180938966717
 30
0.0
 41
1.0
  0
SPLINE
  5
129
330
1F
100
AcDbEntity
  8
0
100
AcDbSpline
210
0.0
220
0.0
230
1.0
 70
12
 71
3
 72
8
 73
4
 74
0
 42
0.000000001
 43
0.0000000001
 40
-1.0
 40
-1.0
 40
-1.0
 40
-1.0
 40
0.0
 40
0.0
 40
0.0
 40
0.0
 10
41.11389626067139
 20
26.58180938966717
 30
0.0
 41
1.0
 10
42.09550042733808
 20
26.00766355633384
 30
0.0
 41
1.0
 10
43.2252712606714
 20
25.35943438966717
 30
0.0
 41
1.0
 10
43.59568792733806
 20
25.15570522300051
 30
0.0
 41
1.0
  0
LINE
  5
130
330
1F
100
AcDbEntity
  8
0
100
AcDbLine
 10
43.59568792733806
 20
25.1557052230005
 30
0.0
 11
44.29947959400474
 21
24.7667677230005
 31
0.0
  0
LINE
  5
131
330
1F
100
AcDbEntity
  8
0
100
AcDbLine
 10
44.29947959400474
 20
24.7667677230005
 30
0.0
 11
44.29947959400474
 21
18.8215802230005
 31
0.0
  0
LINE
  5
132
330
1F
100
AcDbEntity
  8
0
100
AcDbLine
 10
44.29947959400474
 20
18.8215802230005
 30
0.0
 11
41.76212542733807
 21
17.39547605633384
 31
0.0
  0
LINE
  5
133
330
1F
100
AcDbEntity
  8
0
100
AcDbLine
 10
41.76212542733807
 20
17.39547605633384
 30
0.0
 11
39.24329209400474
 21
15.95085105633383
 31
0.0
  0
LINE
  5
134
330
1F
100
AcDbEntity
  8
0
100
AcDbLine
 10
39.24329209400474
 20
15.95085105633383
 30
0.0
 11
34.20562542733807
 21
18.84010105633383
 31
0.0
  0
LINE
  5
135
330
1F
100
AcDbEntity
  8
0
100
AcDbLine
 10
34.20562542733807
 20
18.84010105633383
 30
0.0
 11
34.15006292733807
 21
21.84047605633384
 31
0.0
  0
SPLINE
  5
136
330
1F
100
AcDbEntity
  8
0
100
AcDbSpline
210
0.0
220
0.0
230
1.0
 70
12
 71
3
 72
8
 73
4
 74
0
 42
0.000000001
 43
0.0000000001
 40
-1.0
 40
-1.0
 40
-1.0
 40
-1.0
 40
0.0
 40
0.0
 40
0.0
 40
0.0
 10
34.15006292733807
 20
21.84047605633384
 30
0.0
 41
1.0
 10
34.11302126067141
 20
24.56303855633384
 30
0.0
 41
1.0
 10
34.13154209400474
 20
24.84085105633384
 30
0.0
 41
1.0
 10
34.42787542733807
 20
24.9334552230005
 30
0.0
 41
1.0
  0
LINE
  5
137
330
1F
100
AcDbEntity
  8
0
100
AcDbLine
 10
39.31737542733807
 20
2.541767723000497
 30
0.0
 11
41.11389626067139
 21
3.5974552230005
 31
0.0
  0
SPLINE
  5
138
330
1F
100
AcDbEntity
  8
0
100
AcDbSpline
210
0.0
220
0.0
230
1.0
 70
12
 71
3
 72
8
 73
4
 74
0
 42
0.000000001
 43
0.0000000001
 40
-1.0
 40
-1.0
 40
-1.0
 40
-1.0
 40
0.0
 40
0.0
 40
0.0
 40
0.0
 10
41.11389626067139
 20
3.5974552230005
 30
0.0
 41
1.0
 10
42.09550042733808
 20
4.190121889667164
 30
0.0
 41
1.0
 10
42.96597959400473
 20
4.671663556333828
 30
0.0
 41
1.0
 10
43.0585837606714
 20
4.671663556333828
 30
0.0
 41
1.0
  0
SPLINE
  5
139
330
1F
100
AcDbEntity
  8
0
100
AcDbSpline
210
0.0
220
0.0
230
1.0
 70
12
 71
3
 72
8
 73
4
 74
0
 42
0.000000001
 43
0.0000000001
 40
-1.0
 40
-1.0
 40
-1.0
 40
-1.0
 40
0.0
 40
0.0
 40
0.0
 40
0.0
 10
43.0585837606714
 20
4.671663556333828
 30
0.0
 41
1.0
 10
43.13266709400473
 20
4.671663556333828
 30
0.0
 41
1.0
 10
44.02166709400473
 20
4.190121889667164
 30
0.0
 41
1.0
 10
45.04031292733806
 20
3.615976056333832
 30
0.0
 41
1.0
  0
LINE
  5
140
330
1F
100
AcDbEntity
  8
0
100
AcDbLine
 10
45.04031292733806
 20
3.615976056333832
 30
0.0
 11
46.8923962606714
 21
2.541767723000496
 31
0.0
  0
LINE
  5
141
330
1F
100
AcDbEntity
  8
0
100
AcDbLine
 10
46.8923962606714
 20
2.541767723000496
 30
0.0
 11
46.8923962606714
 21
-1.903232276999506
 31
0.0
  0
LINE
  5
142
330
1F
100
AcDbEntity
  8
0
100
AcDbLine
 10
46.8923962606714
 20
-1.903232276999506
 30
0.0
 11
45.0588337606714
 21
-2.958919776999504
 31
0.0
  0
SPLINE
  5
143
330
1F
100
AcDbEntity
  8
0
100
AcDbSpline
210
0.0
220
0.0
230
1.0
 70
12
 71
3
 72
8
 73
4
 74
0
 42
0.000000001
 43
0.0000000001
 40
-1.0
 40
-1.0
 40
-1.0
 40
-1.0
 40
0.0
 40
0.0
 40
0.0
 40
0.0
 10
45.0588337606714
 20
-2.958919776999504
 30
0.0
 41
1.0
 10
44.04018792733807
 20
-3.551586443666164
 30
0.0
 41
1.0
 10
43.15118792733806
 20
-4.033128110332837
 30
0.0
 41
1.0
 10
43.07710459400474
 20
-4.033128110332837
 30
0.0
 41
1.0
  0
SPLINE
  5
144
330
1F
100
AcDbEntity
  8
0
100
AcDbSpline
210
0.0
220
0.0
230
1.0
 70
12
 71
3
 72
8
 73
4
 74
0
 42
0.000000001
 43
0.0000000001
 40
-1.0
 40
-1.0
 40
-1.0
 40
-1.0
 40
0.0
 40
0.0
 40
0.0
 40
0.0
 10
43.07710459400474
 20
-4.033128110332837
 30
0.0
 41
1.0
 10
43.0030212606714
 20
-4.033128110332837
 30
0.0
 41
1.0
 10
42.13254209400473
 20
-3.551586443666164
 30
0.0
 41
1.0
 10
41.13241709400473
 20
-2.977440610332831
 30
0.0
 41
1.0
  0
LINE
  5
145
330
1F
100
AcDbEntity
  8
0
100
AcDbLine
 10
41.13241709400472
 20
-2.977440610332831
 30
0.0
 11
39.29885459400474
 21
-1.903232276999504
 31
0.0
  0
LINE
  5
146
330
1F
100
AcDbEntity
  8
0
100
AcDbLine
 10
39.29885459400474
 20
-1.903232276999504
 30
0.0
 11
39.29885459400474
 21
0.3192677230004986
 31
0.0
  0
LINE
  5
147
330
1F
100
AcDbEntity
  8
0
100
AcDbLine
 10
39.29885459400474
 20
0.3192677230004986
 30
0.0
 11
39.31737542733807
 21
2.541767723000497
 31
0.0
  0
SPLINE
  5
148
330
1F
100
AcDbEntity
  8
0
100
AcDbSpline
210
0.0
220
0.0
230
1.0
 70
12
 71
3
 72
8
 73
4
 74
0
 42
0.000000001
 43
0.0000000001
 40
-1.0
 40
-1.0
 40
-1.0
 40
-1.0
 40
0.0
 40
0.0
 40
0.0
 40
0.0
 10
54.8378337606714
 20
-14.55296144366616
 30
0.0
 41
1.0
 10
55.6712712606714
 20
-13.62691977699949
 30
0.0
 41
1.0
 10
56.96772959400474
 20
-12.86756561033284
 30
0.0
 41
1.0
 10
58.3938337606714
 20
-12.47862811033283
 30
0.0
 41
1.0
  0
SPLINE
  5
149
330
1F
100
AcDbEntity
  8
0
100
AcDbSpline
210
0.0
220
0.0
230
1.0
 70
12
 71
3
 72
8
 73
4
 74
0
 42
0.000000001
 43
0.0000000001
 40
-1.0
 40
-1.0
 40
-1.0
 40
-1.0
 40
0.0
 40
0.0
 40
0.0
 40
0.0
 10
58.3938337606714
 20
-12.47862811033283
 30
0.0
 41
1.0
 10
60.20887542733806
 20
-11.97856561033282
 30
0.0
 41
1.0
 10
64.0056462606714
 20
-12.23785727699949
 30
0.0
 41
1.0
 10
64.24641709400474
 20
-12.8490447769995
 30
0.0
 41
1.0
  0
SPLINE
  5
150
330
1F
100
AcDbEntity
  8
0
100
AcDbSpline
210
0.0
220
0.0
230
1.0
 70
12
 71
3
 72
8
 73
4
 74
0
 42
0.000000001
 43
0.0000000001
 40
-1.0
 40
-1.0
 40
-1.0
 40
-1.0
 40
0.0
 40
0.0
 40
0.0
 40
0.0
 10
64.24641709400474
 20
-12.8490447769995
 30
0.0
 41
1.0
 10
64.35754209400474
 20
-13.12685727699951
 30
0.0
 41
1.0
 10
63.96860459400475
 20
-14.92337811033282
 30
0.0
 41
1.0
 10
63.76487542733807
 20
-15.03450311033283
 30
0.0
 41
1.0
  0
SPLINE
  5
151
330
1F
100
AcDbEntity
  8
0
100
AcDbSpline
210
0.0
220
0.0
230
1.0
 70
12
 71
3
 72
8
 73
4
 74
0
 42
0.000000001
 43
0.0000000001
 40
-1.0
 40
-1.0
 40
-1.0
 40
-1.0
 40
0.0
 40
0.0
 40
0.0
 40
0.0
 10
63.76487542733807
 20
-15.03450311033283
 30
0.0
 41
1.0
 10
63.70931292733807
 20
-15.07154477699951
 30
0.0
 41
1.0
 10
63.19072959400474
 20
-14.99746144366616
 30
0.0
 41
1.0
 10
62.63510459400475
 20
-14.8492947769995
 30
0.0
 41
1.0
  0
SPLINE
  5
152
330
1F
100
AcDbEntity
  8
0
100
AcDbSpline
210
0.0
220
0.0
230
1.0
 70
12
 71
3
 72
8
 73
4
 74
0
 42
0.000000001
 43
0.0000000001
 40
-1.0
 40
-1.0
 40
-1.0
 40
-1.0
 40
0.0
 40
0.0
 40
0.0
 40
0.0
 10
62.63510459400475
 20
-14.8492947769995
 30
0.0
 41
1.0
 10
59.7273337606714
 20
-14.08994061033283
 30
0.0
 41
1.0
 10
57.28258376067139
 20
-15.16414894366618
 30
0.0
 41
1.0
 10
56.59731292733807
 20
-17.49777394366617
 30
0.0
 41
1.0
  0
SPLINE
  5
153
330
1F
100
AcDbEntity
  8
0
100
AcDbSpline
210
0.0
220
0.0
230
1.0
 70
12
 71
3
 72
8
 73
4
 74
0
 42
0.000000001
 43
0.0000000001
 40
-1.0
 40
-1.0
 40
-1.0
 40
-1.0
 40
0.0
 40
0.0
 40
0.0
 40
0.0
 10
56.59731292733807
 20
-17.49777394366617
 30
0.0
 41
1.0
 10
56.26393792733807
 20
-18.64606561033284
 30
0.0
 41
1.0
 10
56.3380212606714
 20
-20.1832947769995
 30
0.0
 41
1.0
 10
56.78252126067143
 20
-21.05377394366616
 30
0.0
 41
1.0
  0
SPLINE
  5
154
330
1F
100
AcDbEntity
  8
0
100
AcDbSpline
210
0.0
220
0.0
230
1.0
 70
12
 71
3
 72
8
 73
4
 74
0
 42
0.000000001
 43
0.0000000001
 40
-1.0
 40
-1.0
 40
-1.0
 40
-1.0
 40
0.0
 40
0.0
 40
0.0
 40
0.0
 10
56.78252126067143
 20
-21.05377394366616
 30
0.0
 41
1.0
 10
57.63447959400474
 20
-22.6836072769995
 30
0.0
 41
1.0
 10
60.02366709400474
 20
-23.72077394366617
 30
0.0
 41
1.0
 10
61.59793792733807
 20
-23.10958644366617
 30
0.0
 41
1.0
  0
SPLINE
  5
155
330
1F
100
AcDbEntity
  8
0
100
AcDbSpline
210
0.0
220
0.0
230
1.0
 70
12
 71
3
 72
8
 73
4
 74
0
 42
0.000000001
 43
0.0000000001
 40
-1.0
 40
-1.0
 40
-1.0
 40
-1.0
 40
0.0
 40
0.0
 40
0.0
 40
0.0
 10
61.59793792733807
 20
-23.10958644366617
 30
0.0
 41
1.0
 10
62.0609587606714
 20
-22.94289894366617
 30
0.0
 41
1.0
 10
62.07947959400474
 20
-22.8502947769995
 30
0.0
 41
1.0
 10
62.07947959400474
 20
-21.6279197769995
 30
0.0
 41
1.0
  0
LINE
  5
156
330
1F
100
AcDbEntity
  8
0
100
AcDbLine
 10
62.07947959400474
 20
-21.6279197769995
 30
0.0
 11
62.07947959400474
 21
-20.33146144366617
 31
0.0
  0
LINE
  5
157
330
1F
100
AcDbEntity
  8
0
100
AcDbLine
 10
62.07947959400474
 20
-20.33146144366617
 30
0.0
 11
60.04218792733808
 21
-20.33146144366617
 31
0.0
  0
LINE
  5
158
330
1F
100
AcDbEntity
  8
0
100
AcDbLine
 10
60.04218792733808
 20
-20.33146144366617
 30
0.0
 11
60.04218792733808
 21
-17.92375311033283
 31
0.0
  0
LINE
  5
159
330
1F
100
AcDbEntity
  8
0
100
AcDbLine
 10
60.04218792733808
 20
-17.92375311033283
 30
0.0
 11
64.85760459400474
 21
-17.92375311033284
 31
0.0
  0
LINE
  5
160
330
1F
100
AcDbEntity
  8
0
100
AcDbLine
 10
64.85760459400474
 20
-17.92375311033284
 30
0.0
 11
64.85760459400474
 21
-24.92462811033285
 31
0.0
  0
LINE
  5
161
330
1F
100
AcDbEntity
  8
0
100
AcDbLine
 10
64.85760459400474
 20
-24.92462811033285
 30
0.0
 11
63.61670876067139
 21
-25.20244061033285
 31
0.0
  0
SPLINE
  5
162
330
1F
100
AcDbEntity
  8
0
100
AcDbSpline
210
0.0
220
0.0
230
1.0
 70
12
 71
3
 72
8
 73
4
 74
0
 42
0.000000001
 43
0.0000000001
 40
-1.0
 40
-1.0
 40
-1.0
 40
-1.0
 40
0.0
 40
0.0
 40
0.0
 40
0.0
 10
63.6167087606714
 20
-25.20244061033285
 30
0.0
 41
1.0
 10
61.52385459400474
 20
-25.66546144366617
 30
0.0
 41
1.0
 10
60.54225042733808
 20
-25.7395447769995
 30
0.0
 41
1.0
 10
59.02354209400474
 20
-25.53581561033285
 30
0.0
 41
1.0
  0
SPLINE
  5
163
330
1F
100
AcDbEntity
  8
0
100
AcDbSpline
210
0.0
220
0.0
230
1.0
 70
12
 71
3
 72
8
 73
4
 74
0
 42
0.000000001
 43
0.0000000001
 40
-1.0
 40
-1.0
 40
-1.0
 40
-1.0
 40
0.0
 40
0.0
 40
0.0
 40
0.0
 10
59.02354209400474
 20
-25.53581561033285
 30
0.0
 41
1.0
 10
57.28258376067139
 20
-25.29504477699951
 30
0.0
 41
1.0
 10
56.26393792733807
 20
-24.8505447769995
 30
0.0
 41
1.0
 10
55.2267712606714
 20
-23.92450311033283
 30
0.0
 41
1.0
  0
SPLINE
  5
164
330
1F
100
AcDbEntity
  8
0
100
AcDbSpline
210
0.0
220
0.0
230
1.0
 70
12
 71
3
 72
8
 73
4
 74
0
 42
0.000000001
 43
0.0000000001
 40
-1.0
 40
-1.0
 40
-1.0
 40
-1.0
 40
0.0
 40
0.0
 40
0.0
 40
0.0
 10
55.2267712606714
 20
-23.92450311033283
 30
0.0
 41
1.0
 10
52.76350042733806
 20
-21.70200311033283
 30
0.0
 41
1.0
 10
52.57829209400474
 20
-17.12735727699951
 30
0.0
 41
1.0
 10
54.8378337606714
 20
-14.55296144366616
 30
0.0
 41
1.0
  0
SPLINE
  5
165
330
1F
100
AcDbEntity
  8
0
100
AcDbSpline
210
0.0
220
0.0
230
1.0
 70
12
 71
3
 72
8
 73
4
 74
0
 42
0.000000001
 43
0.0000000001
 40
-1.0
 40
-1.0
 40
-1.0
 40
-1.0
 40
0.0
 40
0.0
 40
0.0
 40
0.0
 10
27.42700042733807
 20
-22.86881561033283
 30
0.0
 41
1.0
 10
27.01954209400473
 20
-21.96129477699951
 30
0.0
 41
1.0
 10
26.98250042733807
 20
-21.66496144366617
 30
0.0
 41
1.0
 10
26.92693792733808
 20
-17.12735727699951
 30
0.0
 41
1.0
  0
LINE
  5
166
330
1F
100
AcDbEntity
  8
0
100
AcDbLine
 10
26.92693792733808
 20
-17.1273572769995
 30
0.0
 11
26.85285459400474
 21
-12.36750311033284
 31
0.0
  0
LINE
  5
167
330
1F
100
AcDbEntity
  8
0
100
AcDbLine
 10
26.85285459400474
 20
-12.36750311033284
 30
0.0
 11
29.83470876067141
 21
-12.36750311033284
 31
0.0
  0
LINE
  5
168
330
1F
100
AcDbEntity
  8
0
100
AcDbLine
 10
29.83470876067141
 20
-12.36750311033284
 30
0.0
 11
29.8902712606714
 21
-16.94214894366617
 31
0.0
  0
SPLINE
  5
169
330
1F
100
AcDbEntity
  8
0
100
AcDbSpline
210
0.0
220
0.0
230
1.0
 70
12
 71
3
 72
8
 73
4
 74
0
 42
0.000000001
 43
0.0000000001
 40
-1.0
 40
-1.0
 40
-1.0
 40
-1.0
 40
0.0
 40
0.0
 40
0.0
 40
0.0
 10
29.89027126067141
 20
-16.94214894366617
 30
0.0
 41
1.0
 10
29.9458337606714
 20
-20.90560727699951
 30
0.0
 41
1.0
 10
29.98287542733807
 20
-21.60939894366616
 30
0.0
 41
1.0
 10
30.27920876067141
 20
-22.1279822769995
 30
0.0
 41
1.0
  0
SPLINE
  5
170
330
1F
100
AcDbEntity
  8
0
100
AcDbSpline
210
0.0
220
0.0
230
1.0
 70
12
 71
3
 72
8
 73
4
 74
0
 42
0.000000001
 43
0.0000000001
 40
-1.0
 40
-1.0
 40
-1.0
 40
-1.0
 40
0.0
 40
0.0
 40
0.0
 40
0.0
 10
30.27920876067141
 20
-22.1279822769995
 30
0.0
 41
1.0
 10
30.66814626067141
 20
-22.86881561033283
 30
0.0
 41
1.0
 10
31.44602126067141
 20
-23.2947947769995
 30
0.0
 41
1.0
 10
32.3905837606714
 20
-23.2947947769995
 30
0.0
 41
1.0
  0
SPLINE
  5
171
330
1F
100
AcDbEntity
  8
0
100
AcDbSpline
210
0.0
220
0.0
230
1.0
 70
12
 71
3
 72
8
 73
4
 74
0
 42
0.000000001
 43
0.0000000001
 40
-1.0
 40
-1.0
 40
-1.0
 40
-1.0
 40
0.0
 40
0.0
 40
0.0
 40
0.0
 10
32.3905837606714
 20
-23.2947947769995
 30
0.0
 41
1.0
 10
33.29810459400473
 20
-23.2947947769995
 30
0.0
 41
1.0
 10
33.87225042733807
 20
-22.88733644366617
 30
0.0
 41
1.0
 10
34.31675042733807
 20
-21.92425311033284
 30
0.0
 41
1.0
  0
SPLINE
  5
172
330
1F
100
AcDbEntity
  8
0
100
AcDbSpline
210
0.0
220
0.0
230
1.0
 70
12
 71
3
 72
8
 73
4
 74
0
 42
0.000000001
 43
0.0000000001
 40
-1.0
 40
-1.0
 40
-1.0
 40
-1.0
 40
0.0
 40
0.0
 40
0.0
 40
0.0
 10
34.31675042733807
 20
-21.92425311033284
 30
0.0
 41
1.0
 10
34.61308376067141
 20
-21.25750311033284
 30
0.0
 41
1.0
 10
34.66864626067141
 20
-20.66483644366617
 30
0.0
 41
1.0
 10
34.66864626067141
 20
-16.75694061033283
 30
0.0
 41
1.0
  0
LINE
  5
173
330
1F
100
AcDbEntity
  8
0
100
AcDbLine
 10
34.66864626067141
 20
-16.75694061033284
 30
0.0
 11
34.66864626067141
 21
-12.36750311033284
 31
0.0
  0
LINE
  5
174
330
1F
100
AcDbEntity
  8
0
100
AcDbLine
 10
34.66864626067141
 20
-12.36750311033284
 30
0.0
 11
37.65050042733808
 21
-12.36750311033284
 31
0.0
  0
LINE
  5
175
330
1F
100
AcDbEntity
  8
0
100
AcDbLine
 10
37.65050042733808
 20
-12.36750311033284
 30
0.0
 11
37.59493792733807
 21
-17.1273572769995
 31
0.0
  0
SPLINE
  5
176
330
1F
100
AcDbEntity
  8
0
100
AcDbSpline
210
0.0
220
0.0
230
1.0
 70
12
 71
3
 72
8
 73
4
 74
0
 42
0.000000001
 43
0.0000000001
 40
-1.0
 40
-1.0
 40
-1.0
 40
-1.0
 40
0.0
 40
0.0
 40
0.0
 40
0.0
 10
37.59493792733807
 20
-17.12735727699951
 30
0.0
 41
1.0
 10
37.52085459400474
 20
-22.35023227699949
 30
0.0
 41
1.0
 10
37.48381292733807
 20
-22.59100311033284
 30
0.0
 41
1.0
 10
36.33552126067141
 20
-24.03562811033283
 30
0.0
 41
1.0
  0
SPLINE
  5
177
330
1F
100
AcDbEntity
  8
0
100
AcDbSpline
210
0.0
220
0.0
230
1.0
 70
12
 71
3
 72
8
 73
4
 74
0
 42
0.000000001
 43
0.0000000001
 40
-1.0
 40
-1.0
 40
-1.0
 40
-1.0
 40
0.0
 40
0.0
 40
0.0
 40
0.0
 10
36.33552126067141
 20
-24.03562811033283
 30
0.0
 41
1.0
 10
35.59468792733807
 20
-24.98019061033284
 30
0.0
 41
1.0
 10
34.35379209400474
 20
-25.53581561033285
 30
0.0
 41
1.0
 10
32.72395876067141
 20
-25.64694061033284
 30
0.0
 41
1.0
  0
SPLINE
  5
178
330
1F
100
AcDbEntity
  8
0
100
AcDbSpline
210
0.0
220
0.0
230
1.0
 70
12
 71
3
 72
8
 73
4
 74
0
 42
0.000000001
 43
0.0000000001
 40
-1.0
 40
-1.0
 40
-1.0
 40
-1.0
 40
0.0
 40
0.0
 40
0.0
 40
0.0
 10
32.72395876067141
 20
-25.64694061033284
 30
0.0
 41
1.0
 10
30.1680837606714
 20
-25.85066977699951
 30
0.0
 41
1.0
 10
28.31600042733807
 20
-24.86906561033283
 30
0.0
 41
1.0
 10
27.42700042733807
 20
-22.86881561033283
 30
0.0
 41
1.0
  0
LINE
  5
179
330
1F
100
AcDbEntity
  8
0
100
AcDbLine
 10
26.51947959400474
 20
14.39510105633383
 30
0.0
 11
29.63097959400475
 21
16.19162188966717
 31
0.0
  0
SPLINE
  5
180
330
1F
100
AcDbEntity
  8
0
100
AcDbSpline
210
0.0
220
0.0
230
1.0
 70
12
 71
3
 72
8
 73
4
 74
0
 42
0.000000001
 43
0.0000000001
 40
-1.0
 40
-1.0
 40
-1.0
 40
-1.0
 40
0.0
 40
0.0
 40
0.0
 40
0.0
 10
29.63097959400475
 20
16.19162188966717
 30
0.0
 41
1.0
 10
31.33489626067141
 20
17.17322605633383
 30
0.0
 41
1.0
 10
32.85360459400474
 20
17.95110105633384
 30
0.0
 41
1.0
 10
33.0017712606714
 20
17.89553855633384
 30
0.0
 41
1.0
  0
SPLINE
  5
181
330
1F
100
AcDbEntity
  8
0
100
AcDbSpline
210
0.0
220
0.0
230
1.0
 70
12
 71
3
 72
8
 73
4
 74
0
 42
0.000000001
 43
0.0000000001
 40
-1.0
 40
-1.0
 40
-1.0
 40
-1.0
 40
0.0
 40
0.0
 40
0.0
 40
0.0
 10
33.0017712606714
 20
17.89553855633384
 30
0.0
 41
1.0
 10
33.14993792733807
 20
17.83997605633384
 30
0.0
 41
1.0
 10
34.57604209400474
 20
17.04358022300049
 30
0.0
 41
1.0
 10
36.18735459400474
 20
16.11753855633383
 30
0.0
 41
1.0
  0
LINE
  5
182
330
1F
100
AcDbEntity
  8
0
100
AcDbLine
 10
36.18735459400474
 20
16.11753855633383
 30
0.0
 11
39.09512542733807
 21
14.41362188966717
 31
0.0
  0
LINE
  5
183
330
1F
100
AcDbEntity
  8
0
100
AcDbLine
 10
39.09512542733807
 20
14.41362188966717
 30
0.0
 11
39.15068792733809
 21
10.82058022300049
 31
0.0
  0
SPLINE
  5
184
330
1F
100
AcDbEntity
  8
0
100
AcDbSpline
210
0.0
220
0.0
230
1.0
 70
12
 71
3
 72
8
 73
4
 74
0
 42
0.000000001
 43
0.0000000001
 40
-1.0
 40
-1.0
 40
-1.0
 40
-1.0
 40
0.0
 40
0.0
 40
0.0
 40
0.0
 10
39.15068792733807
 20
10.82058022300049
 30
0.0
 41
1.0
 10
39.18772959400474
 20
8.598080223000494
 30
0.0
 41
1.0
 10
39.13216709400474
 20
7.116413556333828
 30
0.0
 41
1.0
 10
39.02104209400473
 20
6.986767723000499
 30
0.0
 41
1.0
  0
SPLINE
  5
185
330
1F
100
AcDbEntity
  8
0
100
AcDbSpline
210
0.0
220
0.0
230
1.0
 70
12
 71
3
 72
8
 73
4
 74
0
 42
0.000000001
 43
0.0000000001
 40
-1.0
 40
-1.0
 40
-1.0
 40
-1.0
 40
0.0
 40
0.0
 40
0.0
 40
0.0
 10
39.02104209400473
 20
6.986767723000499
 30
0.0
 41
1.0
 10
38.92843792733808
 20
6.857121889667166
 30
0.0
 41
1.0
 10
37.48381292733807
 20
5.986642723000503
 30
0.0
 41
1.0
 10
35.83545876067141
 20
5.042080223000495
 30
0.0
 41
1.0
  0
LINE
  5
186
330
1F
100
AcDbEntity
  8
0
100
AcDbLine
 10
35.83545876067141
 20
5.042080223000495
 30
0.0
 11
32.81656292733807
 21
3.338163556333832
 31
0.0
  0
LINE
  5
187
330
1F
100
AcDbEntity
  8
0
100
AcDbLine
 10
32.81656292733807
 20
3.338163556333832
 30
0.0
 11
31.76087542733807
 21
3.967871889667167
 31
0.0
  0
SPLINE
  5
188
330
1F
100
AcDbEntity
  8
0
100
AcDbSpline
210
0.0
220
0.0
230
1.0
 70
12
 71
3
 72
8
 73
4
 74
0
 42
0.000000001
 43
0.0000000001
 40
-1.0
 40
-1.0
 40
-1.0
 40
-1.0
 40
0.0
 40
0.0
 40
0.0
 40
0.0
 10
31.76087542733807
 20
3.967871889667167
 30
0.0
 41
1.0
 10
31.16820876067141
 20
4.301246889667162
 30
0.0
 41
1.0
 10
30.46441709400474
 20
4.708705223000499
 30
0.0
 41
1.0
 10
30.20512542733808
 20
4.856871889667164
 30
0.0
 41
1.0
  0
SPLINE
  5
189
330
1F
100
AcDbEntity
  8
0
100
AcDbSpline
210
0.0
220
0.0
230
1.0
 70
12
 71
3
 72
8
 73
4
 74
0
 42
0.000000001
 43
0.0000000001
 40
-1.0
 40
-1.0
 40
-1.0
 40
-1.0
 40
0.0
 40
0.0
 40
0.0
 40
0.0
 10
30.20512542733808
 20
4.856871889667164
 30
0.0
 41
1.0
 10
29.92731292733807
 20
5.005038556333833
 30
0.0
 41
1.0
 10
29.00127126067141
 20
5.542142723000496
 30
0.0
 41
1.0
 10
28.11227126067141
 20
6.042205223000505
 30
0.0
 41
1.0
  0
LINE
  5
190
330
1F
100
AcDbEntity
  8
0
100
AcDbLine
 10
28.11227126067141
 20
6.042205223000505
 30
0.0
 11
26.51947959400474
 21
6.96824688966717
 31
0.0
  0
LINE
  5
191
330
1F
100
AcDbEntity
  8
0
100
AcDbLine
 10
26.51947959400474
 20
6.96824688966717
 30
0.0
 11
26.51947959400474
 21
14.39510105633383
 31
0.0
  0
LINE
  5
192
330
1F
100
AcDbEntity
  8
0
100
AcDbLine
 10
48.37406292733806
 20
3.3196427230005
 30
0.0
 11
51.48556292733807
 21
5.116163556333832
 31
0.0
  0
SPLINE
  5
193
330
1F
100
AcDbEntity
  8
0
100
AcDbSpline
210
0.0
220
0.0
230
1.0
 70
12
 71
3
 72
8
 73
4
 74
0
 42
0.000000001
 43
0.0000000001
 40
-1.0
 40
-1.0
 40
-1.0
 40
-1.0
 40
0.0
 40
0.0
 40
0.0
 40
0.0
 10
51.48556292733807
 20
5.116163556333832
 30
0.0
 41
1.0
 10
53.24504209400474
 20
6.134809389667168
 30
0.0
 41
1.0
 10
54.68966709400475
 20
6.857121889667166
 30
0.0
 41
1.0
 10
54.85635459400475
 20
6.783038556333837
 30
0.0
 41
1.0
  0
SPLINE
  5
194
330
1F
100
AcDbEntity
  8
0
100
AcDbSpline
210
0.0
220
0.0
230
1.0
 70
12
 71
3
 72
8
 73
4
 74
0
 42
0.000000001
 43
0.0000000001
 40
-1.0
 40
-1.0
 40
-1.0
 40
-1.0
 40
0.0
 40
0.0
 40
0.0
 40
0.0
 10
54.85635459400475
 20
6.783038556333837
 30
0.0
 41
1.0
 10
55.0045212606714
 20
6.727476056333836
 30
0.0
 41
1.0
 10
56.44914626067141
 20
5.912559389667161
 30
0.0
 41
1.0
 10
58.06045876067141
 20
4.986517723000498
 30
0.0
 41
1.0
  0
LINE
  5
195
330
1F
100
AcDbEntity
  8
0
100
AcDbLine
 10
58.06045876067142
 20
4.986517723000499
 30
0.0
 11
60.96822959400475
 21
3.282601056333829
 31
0.0
  0
LINE
  5
196
330
1F
100
AcDbEntity
  8
0
100
AcDbLine
 10
60.96822959400475
 20
3.282601056333829
 30
0.0
 11
60.96822959400473
 21
-4.125732276999497
 31
0.0
  0
LINE
  5
197
330
1F
100
AcDbEntity
  8
0
100
AcDbLine
 10
60.96822959400473
 20
-4.125732276999497
 30
0.0
 11
54.67114626067139
 21
-7.75581561033283
 31
0.0
  0
LINE
  5
198
330
1F
100
AcDbEntity
  8
0
100
AcDbLine
 10
54.67114626067139
 20
-7.75581561033283
 30
0.0
 11
48.37406292733806
 21
-4.125732276999501
 31
0.0
  0
LINE
  5
199
330
1F
100
AcDbEntity
  8
0
100
AcDbLine
 10
48.37406292733806
 20
-4.125732276999501
 30
0.0
 11
48.37406292733806
 21
3.3196427230005
 31
0.0
  0
LWPOLYLINE
  5
200
330
1F
100
AcDbEntity
  8
0
100
AcDbPolyline
 90
12
 70
1
 43
0.0
 10
45.04031292733806
 20
-25.51729477699951
 10
42.07697959400472
 20
-25.51729477699951
 10
42.07697959400474
 20
-12.36750311033284
 10
50.24466709400474
 20
-12.36750311033284
 10
50.18910459400474
 20
-13.51579477699949
 10
50.13354209400475
 20
-14.68260727699951
 10
47.59618792733806
 20
-14.73816977699949
 10
45.04031292733806
 20
-14.7937322769995
 10
45.04031292733806
 20
-17.73854477699949
 10
49.85572959400473
 20
-17.7385447769995
 10
49.85572959400474
 20
-20.14625311033283
 10
45.04031292733806
 20
-20.14625311033284
  0
ENDSEC
  0
EOF
